<?xml version="1.0" standalone="no"?>
<!DOCTYPE svg PUBLIC "-//W3C//DTD SVG 20010904//EN"
 "http://www.w3.org/TR/2001/REC-SVG-20010904/DTD/svg10.dtd">
<svg version="1.0" xmlns="http://www.w3.org/2000/svg"
 width="1200.000000pt" height="1200.000000pt" viewBox="0 0 1200.000000 1200.000000"
 preserveAspectRatio="xMidYMid meet">
<metadata>
Created by potrace 1.11, written by Peter Selinger 2001-2013
</metadata>
<g transform="translate(0.000000,1200.000000) scale(0.100000,-0.100000)"
fill="#000000" stroke="none">
<path d="M5941 9848 c-18 -5 -62 -27 -98 -49 -36 -21 -67 -39 -69 -39 -3 0
-23 -11 -45 -26 -22 -14 -57 -34 -77 -46 -83 -46 -421 -243 -480 -279 -35 -22
-65 -39 -68 -39 -2 0 -37 -19 -77 -43 -39 -24 -106 -63 -147 -87 -41 -24 -92
-54 -112 -67 -21 -12 -39 -23 -42 -23 -2 0 -66 -37 -142 -81 -233 -137 -377
-221 -424 -247 -25 -14 -121 -70 -215 -125 -93 -55 -191 -111 -216 -126 -25
-14 -100 -57 -168 -96 -204 -117 -242 -145 -270 -198 l-24 -48 -3 -1552 c-2
-989 0 -1565 6 -1588 12 -43 70 -105 125 -135 22 -11 56 -30 75 -41 62 -37
769 -446 835 -483 17 -10 71 -41 120 -70 88 -51 127 -73 223 -127 26 -14 63
-36 82 -48 19 -12 55 -33 80 -47 25 -14 61 -34 80 -46 211 -122 342 -198 375
-217 51 -29 106 -60 148 -84 17 -10 113 -66 212 -123 294 -171 311 -180 370
-184 61 -4 97 12 315 141 63 37 131 77 150 88 32 18 411 237 618 358 46 27 88
49 93 49 5 0 9 5 9 10 0 6 4 10 10 10 5 0 50 25 100 55 50 30 93 55 96 55 2 0
21 11 42 23 97 62 282 167 291 167 6 0 11 4 11 9 0 5 8 11 18 14 9 4 35 17 57
30 22 14 137 81 255 149 118 69 260 151 315 183 55 32 116 68 135 79 19 12 52
30 73 41 60 31 106 73 129 118 l21 42 3 1555 c5 1750 11 1606 -73 1680 -25 22
-49 40 -54 40 -4 0 -48 25 -98 55 -50 30 -93 55 -96 55 -3 0 -22 11 -43 24
-46 29 -473 276 -477 276 -2 0 -59 33 -126 73 -68 40 -131 76 -139 80 -8 4
-33 18 -55 31 -37 23 -125 74 -200 116 -16 10 -108 63 -204 119 -96 55 -175
101 -177 101 -2 0 -44 25 -95 55 -50 30 -93 55 -94 55 -1 0 -75 43 -164 95
-90 52 -164 95 -166 95 -2 0 -32 17 -66 38 -168 102 -352 202 -374 203 -11 1
-29 2 -40 4 -11 1 -35 -2 -54 -7z"/>
<path d="M2933 3042 c-42 -3 -43 -4 -44 -40 -3 -148 0 -635 4 -639 3 -2 56 -5
119 -6 182 -2 266 42 330 170 30 62 33 74 33 168 0 112 -14 167 -58 233 -39
58 -86 87 -177 109 -22 5 -158 8 -207 5z m246 -93 c70 -41 114 -134 114 -238
-1 -193 -79 -283 -246 -282 -38 0 -71 2 -74 4 -4 4 -5 125 -4 416 l1 123 93
-4 c55 -2 102 -10 116 -19z"/>
<path d="M4742 3042 c-38 -6 -51 -72 -18 -94 20 -14 53 -8 71 12 33 36 -1 90
-53 82z"/>
<path d="M5588 3032 c-37 -43 -20 -92 31 -92 60 0 71 74 15 96 -28 11 -34 11
-46 -4z"/>
<path d="M7608 3045 c-2 -1 -32 -5 -68 -8 -36 -3 -66 -6 -67 -7 -1 0 -2 -150
-2 -333 0 -306 1 -333 17 -334 248 -18 339 10 392 121 40 86 1 189 -85 222
l-46 17 32 14 c75 31 110 106 88 188 -18 68 -65 103 -148 111 -97 10 -111 11
-113 9z m130 -92 c19 -9 38 -27 43 -40 35 -94 -37 -168 -168 -172 l-63 -2 0
115 0 115 38 3 c58 5 114 -2 150 -19z m37 -318 c36 -31 45 -95 21 -140 -28
-52 -87 -71 -203 -67 l-43 2 0 119 0 120 53 3 c74 4 140 -10 172 -37z"/>
<path d="M3662 3028 c-16 -16 -15 -63 2 -77 42 -35 111 20 82 64 -15 23 -66
31 -84 13z"/>
<path d="M7056 3030 c-1 -3 -2 -143 -1 -313 l1 -307 26 -27 c27 -26 44 -30
131 -25 26 2 28 5 25 35 -3 31 -4 32 -44 29 -61 -5 -64 9 -63 298 1 353 5 316
-37 316 -19 0 -37 -3 -38 -6z"/>
<path d="M5138 2949 c-23 -9 -27 -17 -30 -57 -3 -44 -5 -46 -33 -48 -16 -1
-32 -2 -35 -3 -3 0 -6 -16 -6 -34 0 -33 1 -33 38 -30 l38 4 0 -171 c0 -186 9
-227 53 -247 26 -12 111 -8 150 6 22 9 25 14 18 38 -5 17 -14 27 -22 24 -53
-13 -87 -12 -102 4 -18 17 -19 28 -19 205 0 152 -3 140 40 139 81 -3 92 0 92
24 0 36 -12 44 -65 42 -69 -2 -73 0 -70 48 4 68 0 73 -47 56z"/>
<path d="M6015 2953 c-34 -9 -43 -23 -40 -63 3 -42 -3 -48 -47 -45 -25 2 -28
-1 -28 -32 0 -33 5 -37 48 -33 12 1 22 -4 23 -12 1 -7 2 -85 3 -173 3 -173 11
-209 56 -233 14 -7 42 -11 65 -8 96 11 114 22 97 60 -10 22 -13 23 -50 13 -81
-22 -92 2 -92 204 l0 150 43 -2 c84 -3 87 -2 87 34 l0 33 -62 -1 -63 0 -3 58
c-2 31 -6 56 -10 56 -4 -1 -16 -4 -27 -6z"/>
<path d="M3665 2825 c-2 -11 -3 -119 -2 -240 l2 -219 38 -1 37 -1 0 241 0 241
-35 0 c-28 0 -37 -5 -40 -21z"/>
<path d="M4155 2838 c-68 -24 -115 -80 -130 -154 -7 -36 -7 -139 0 -176 19
-97 91 -158 180 -152 17 1 39 2 51 3 12 0 33 12 47 25 30 28 36 19 31 -42 -7
-88 -43 -116 -141 -109 -37 2 -78 7 -89 11 -18 6 -23 2 -32 -23 -9 -27 -8 -32
9 -41 28 -15 167 -21 211 -9 37 9 114 67 104 76 -3 3 0 17 5 31 8 20 15 418
10 533 -2 34 -183 53 -256 27z m150 -62 l30 -7 0 -127 c-1 -149 -11 -183 -62
-207 -98 -47 -178 30 -175 167 4 148 70 204 207 174z"/>
<path d="M4723 2836 c-8 -11 -10 -465 -3 -467 22 -5 70 -5 71 0 3 16 5 457 2
467 -5 13 -62 14 -70 0z"/>
<path d="M5585 2826 c-2 -12 -3 -120 -2 -241 l2 -220 28 1 c15 1 31 2 36 3 8
1 13 432 5 462 -7 25 -63 20 -69 -5z"/>
<path d="M6484 2836 c-62 -19 -64 -22 -52 -56 5 -17 11 -30 13 -30 1 0 19 7
38 15 20 8 64 16 97 17 76 3 98 -16 104 -85 2 -26 1 -49 -3 -52 -5 -2 -35 -5
-67 -6 -74 -3 -150 -22 -176 -46 -47 -42 -57 -125 -22 -179 46 -69 190 -73
252 -6 13 13 26 21 29 18 4 -3 4 -6 0 -6 -3 0 -1 -14 5 -30 8 -25 15 -30 38
-28 16 1 26 6 23 11 -3 5 -6 99 -7 208 l-1 199 -33 32 c-31 32 -36 33 -115 35
-45 0 -100 -5 -123 -11z m197 -273 c4 -66 -10 -97 -54 -120 -52 -27 -97 -24
-131 9 -22 23 -27 34 -21 56 13 53 47 70 148 71 48 1 57 -2 58 -16z"/>
<path d="M8160 2840 c-6 -4 -9 -69 -8 -172 2 -253 26 -306 138 -313 67 -4 103
9 145 50 l32 33 12 -38 c9 -31 16 -38 35 -36 22 1 23 4 20 61 -2 33 -3 142 -4
242 l0 181 -30 -2 c-16 -1 -33 -6 -37 -10 -4 -4 -8 -76 -9 -159 0 -123 -4
-158 -18 -185 -36 -69 -125 -94 -171 -47 -14 13 -26 32 -27 42 0 10 -2 23 -3
28 -2 6 -3 82 -4 171 l-1 160 -30 0 c-16 0 -34 -2 -40 -6z"/>
<path d="M8782 2776 c16 -39 33 -80 38 -91 5 -11 36 -88 69 -171 56 -141 59
-154 49 -188 -14 -46 -53 -86 -84 -86 -13 0 -24 -3 -25 -7 0 -5 -2 -20 -4 -35
-3 -27 -2 -28 40 -28 52 0 90 32 123 104 19 40 192 551 192 566 0 4 -12 6 -27
4 -16 -1 -33 -2 -39 -3 -9 -1 -41 -89 -60 -166 -2 -5 -10 -35 -19 -65 -9 -30
-23 -80 -32 -110 -8 -30 -16 -56 -18 -58 -2 -2 -8 16 -13 40 -8 36 -68 209
-89 258 -3 8 -14 35 -23 60 -16 44 -17 44 -62 45 l-45 1 29 -70z"/>
</g>
</svg>
